<svg width="79" height="80" viewBox="0 0 79 80" fill="none" xmlns="http://www.w3.org/2000/svg">
<path d="M39.4999 52L30.6972 46.0489C25.0292 42.217 21.3614 36.0606 20.69 29.2518L18.2 4H60.7999L58.3097 29.2519C57.6383 36.0606 53.9705 42.217 48.3025 46.0489L39.4999 52ZM39.4999 52L32.7291 58.8662C29.4269 62.2148 27.1814 66.4598 26.2714 71.0738L25.2999 76H53.6999L52.7283 71.0738C51.8183 66.4598 49.5728 62.2148 46.2707 58.8662L39.4999 52Z" stroke="white" stroke-width="8"/>
<path d="M56.3625 40H65C70.5229 40 75 35.5228 75 30V23.4527C75 19.0307 72.0957 15.1338 67.8582 13.8699L59.9125 11.5" stroke="white" stroke-width="8"/>
<path d="M22.6375 39.9999H14C8.47715 39.9999 4 35.5228 4 29.9999V23.7278C4 19.2951 6.91809 15.3914 11.1695 14.1368L19.0875 11.8" stroke="white" stroke-width="8"/>
</svg>
